# xmcd CD database file
#
# Track frame offsets:
#	150
#	13988
#	25485
#	40051
#	56576
#	75770
#	95108
#	102493
#	119030
#	139194
#	156422
#	168176
#	191427
#
# Disc length: 3099 seconds
#
# Revision: 2
# Processed by: cddbd v1.5.1PL2 Copyright (c) Steve Scherf et al.
# Submitted via: CDex 1.51
#
DISCID=ae0c190d
DTITLE=Howard Fishman - Look At All This!
DYEAR=2005
DGENRE=Jazz
TTITLE0=Superstitious
TTITLE1=Ocean Avenue
TTITLE2=Decision
TTITLE3=Katie Lala
TTITLE4=Best Is Yet To Come
TTITLE5=Strange Woman
TTITLE6=Insomnia
TTITLE7=Spiritual (Independence, Mo. 1846)
TTITLE8=Small Talk
TTITLE9=Someday (Lullaby)
TTITLE10=You Say
TTITLE11=That Lonesome Road
TTITLE12=Pictures
EXTD=YEAR: 2005
EXTT0=
EXTT1=
EXTT2=
EXTT3=
EXTT4=
EXTT5=
EXTT6=
EXTT7=
EXTT8=
EXTT9=
EXTT10=
EXTT11=
EXTT12=
PLAYORDER=
